# xmcd CD database file
#
# Track frame offsets:
#	150
#	19805
#	40105
#	63055
#	81577
#	99577
#	119170
#	141997
#	160657
#	178565
#
# Disc length: 2651 seconds
#
# Revision: 0
# Processed by: cddbd v1.5.1PL0 Copyright (c) Steve Scherf et al.
# Submitted via: CDex 1.51
#
DISCID=840a590a
DTITLE=國実百合 - TEARS TIARA
DYEAR=1990
DGENRE=JPop
TTITLE0=パジャマを着ている妖精
TTITLE1=太陽は知っている
TTITLE2=氷の宮殿
TTITLE3=泣くかもしれない
TTITLE4=存在。
TTITLE5=TEARS TIARA
TTITLE6=7e sens 〜第七感〜
TTITLE7=かすみ草の咲く道
TTITLE8=手のひらに爪の跡
TTITLE9=ルビーの嘆き
EXTD=YEAR: 1990
EXTT0=
EXTT1=
EXTT2=
EXTT3=
EXTT4=
EXTT5=
EXTT6=
EXTT7=
EXTT8=
EXTT9=
PLAYORDER=
